<?xml version="1.0" standalone="no"?>
<!DOCTYPE svg PUBLIC "-//W3C//DTD SVG 20010904//EN"
 "http://www.w3.org/TR/2001/REC-SVG-20010904/DTD/svg10.dtd">
<svg version="1.0" xmlns="http://www.w3.org/2000/svg"
 width="500.000000pt" height="500.000000pt" viewBox="0 0 500.000000 500.000000"
 preserveAspectRatio="xMidYMid meet">
<metadata>
Created by potrace 1.14, written by Peter Selinger 2001-2017
</metadata>
<g transform="translate(0.000000,500.000000) scale(0.100000,-0.100000)"
fill="#000000" stroke="none">
<path d="M856 3823 c3 -191 7 -349 9 -351 2 -2 77 -31 167 -64 163 -60 200
-73 488 -175 85 -30 164 -58 175 -63 29 -13 203 -71 227 -75 11 -2 28 -7 39
-10 13 -4 19 -2 19 9 0 9 -7 16 -15 16 -8 0 -15 2 -15 4 0 8 62 67 87 83 23
15 32 43 14 43 -6 0 -6 12 0 30 6 17 15 30 21 30 5 0 6 -4 3 -10 -9 -15 4 -12
21 4 18 19 18 30 -1 22 -13 -5 -14 -2 -4 16 6 12 20 31 30 42 14 14 16 22 7
27 -9 6 -9 13 -1 31 7 13 12 17 12 10 1 -10 6 -10 21 -2 21 11 29 60 10 60 -6
0 -2 10 10 22 13 14 18 29 14 41 -4 11 -2 17 3 14 5 -4 20 1 33 10 l22 16 -33
14 -34 15 24 11 c19 9 25 9 29 -1 4 -14 22 -17 22 -3 0 4 -44 25 -97 46 -54
21 -116 46 -138 56 -42 19 -269 105 -445 169 -58 21 -159 59 -225 85 -220 84
-473 175 -488 175 -13 0 -15 -41 -11 -347z"/>
<path d="M2298 3613 c7 -3 16 -2 19 1 4 3 -2 6 -13 5 -11 0 -14 -3 -6 -6z"/>
<path d="M2276 2151 c-3 -4 6 -6 19 -3 14 2 25 6 25 8 0 8 -39 4 -44 -5z"/>
<path d="M2175 2109 c-10 -15 -2 -19 24 -12 17 4 19 8 9 14 -18 12 -26 11 -33
-2z"/>
<path d="M2100 2090 c-60 -19 -840 -298 -1005 -359 -44 -16 -115 -42 -157 -57
l-77 -28 -3 -346 c-2 -190 0 -349 3 -353 3 -4 77 19 165 51 255 95 588 219
744 279 265 100 384 145 450 167 87 30 170 68 170 78 0 12 -28 10 -32 -3 -4
-12 -38 -1 -38 12 0 4 7 6 15 3 12 -5 21 7 13 19 -1 1 4 12 11 25 10 20 9 22
-9 22 -30 0 -60 18 -60 36 0 8 4 13 9 10 10 -7 23 19 14 28 -4 3 -21 6 -40 6
-37 0 -35 -3 -33 96 1 60 0 62 -29 75 -34 15 -57 52 -53 83 2 17 1 18 -7 6 -9
-13 -11 -13 -11 3 0 9 5 17 10 17 6 0 10 5 10 10 0 6 -9 10 -20 10 -18 0 -24
8 -17 28 1 4 6 6 11 4 5 -2 4 4 -3 12 -7 8 -9 20 -5 27 5 9 0 10 -20 5 -39
-10 -31 10 12 27 38 17 26 21 -18 7z"/>
<path d="M2156 2035 c4 -8 10 -12 15 -9 11 6 2 24 -11 24 -5 0 -7 -7 -4 -15z"/>
<path d="M2187 1901 c-16 -6 -17 -9 -5 -18 9 -8 19 -9 28 -3 20 13 1 30 -23
21z"/>
<path d="M2400 1590 c0 -5 9 -10 19 -10 11 0 23 5 26 10 4 6 -5 10 -19 10 -14
0 -26 -4 -26 -10z"/>
<path d="M2444 1552 c-15 -24 -15 -25 1 -19 9 4 23 7 30 7 21 0 26 28 5 33
-13 3 -25 -4 -36 -21z"/>
</g>
</svg>
